{
    "asset" : {
        "generator" : "Khronos glTF Blender I/O v1.7.33",
        "version" : "2.0"
    },
    "scene" : 0,
    "scenes" : [
        {
            "name" : "Scene",
            "nodes" : [
                0,
                1,
                2
            ]
        }
    ],
    "nodes" : [
        {
            "mesh" : 0,
            "name" : "filtr-wk\u0142ad",
            "rotation" : [
                1,
                0,
                0,
                -4.371138828673793e-08
            ],
            "scale" : [
                0.30000001192092896,
                0.8199998140335083,
                0.30000001192092896
            ]
        },
        {
            "mesh" : 1,
            "name" : "obudowa",
            "rotation" : [
                1,
                0,
                0,
                -4.371138828673793e-08
            ]
        },
        {
            "mesh" : 2,
            "name" : "dekiel",
            "rotation" : [
                1,
                0,
                0,
                -4.371138828673793e-08
            ],
            "scale" : [
                1,
                2.1999998092651367,
                1
            ],
            "translation" : [
                0,
                1.0200599431991577,
                0
            ]
        }
    ],
    "materials" : [
        {
            "doubleSided" : true,
            "name" : "Material.003",
            "pbrMetallicRoughness" : {
                "baseColorFactor" : [
                    0.8000000715255737,
                    0.5478113293647766,
                    0,
                    1
                ],
                "metallicFactor" : 0,
                "roughnessFactor" : 0.4000000059604645
            }
        },
        {
            "doubleSided" : true,
            "name" : "Material.005",
            "pbrMetallicRoughness" : {
                "baseColorFactor" : [
                    0.36723822355270386,
                    0.09689302742481232,
                    0,
                    1
                ],
                "metallicFactor" : 0,
                "roughnessFactor" : 0.4000000059604645
            }
        },
        {
            "doubleSided" : true,
            "name" : "Material.001",
            "pbrMetallicRoughness" : {
                "baseColorFactor" : [
                    1,
                    0,
                    0.15388496220111847,
                    1
                ],
                "metallicFactor" : 1.2000000476837158,
                "roughnessFactor" : 0.4313725531101227
            }
        },
        {
            "doubleSided" : true,
            "name" : "Material.006",
            "pbrMetallicRoughness" : {
                "baseColorFactor" : [
                    0,
                    0.0010573847685009241,
                    0.8000000715255737,
                    1
                ],
                "metallicFactor" : 0,
                "roughnessFactor" : 0.5
            }
        },
        {
            "doubleSided" : true,
            "name" : "Material.007",
            "pbrMetallicRoughness" : {
                "baseColorFactor" : [
                    0.8000000715255737,
                    0.2044399380683899,
                    0,
                    1
                ],
                "metallicFactor" : 0,
                "roughnessFactor" : 0.5
            }
        },
        {
            "doubleSided" : true,
            "name" : "Material.008",
            "pbrMetallicRoughness" : {
                "baseColorFactor" : [
                    0,
                    0.8000000715255737,
                    0.5719964504241943,
                    1
                ],
                "metallicFactor" : 0,
                "roughnessFactor" : 0.5
            }
        },
        {
            "doubleSided" : true,
            "name" : "Material.002",
            "pbrMetallicRoughness" : {
                "baseColorFactor" : [
                    0.5173336267471313,
                    0.4870302081108093,
                    0.4870302081108093,
                    1
                ],
                "metallicFactor" : 0.36283186078071594,
                "roughnessFactor" : 0.23185841739177704
            }
        }
    ],
    "meshes" : [
        {
            "name" : "Cylinder.003",
            "primitives" : [
                {
                    "attributes" : {
                        "POSITION" : 0,
                        "NORMAL" : 1,
                        "TEXCOORD_0" : 2
                    },
                    "indices" : 3,
                    "material" : 0
                },
                {
                    "attributes" : {
                        "POSITION" : 4,
                        "NORMAL" : 5,
                        "TEXCOORD_0" : 6
                    },
                    "indices" : 7,
                    "material" : 1
                }
            ]
        },
        {
            "name" : "Cylinder.011",
            "primitives" : [
                {
                    "attributes" : {
                        "POSITION" : 8,
                        "NORMAL" : 9,
                        "TEXCOORD_0" : 10
                    },
                    "indices" : 11,
                    "material" : 2
                },
                {
                    "attributes" : {
                        "POSITION" : 12,
                        "NORMAL" : 13,
                        "TEXCOORD_0" : 14
                    },
                    "indices" : 15,
                    "material" : 3
                },
                {
                    "attributes" : {
                        "POSITION" : 16,
                        "NORMAL" : 17,
                        "TEXCOORD_0" : 18
                    },
                    "indices" : 19,
                    "material" : 4
                },
                {
                    "attributes" : {
                        "POSITION" : 20,
                        "NORMAL" : 21,
                        "TEXCOORD_0" : 22
                    },
                    "indices" : 23,
                    "material" : 5
                }
            ]
        },
        {
            "name" : "Cylinder.012",
            "primitives" : [
                {
                    "attributes" : {
                        "POSITION" : 24,
                        "NORMAL" : 25,
                        "TEXCOORD_0" : 26
                    },
                    "indices" : 27,
                    "material" : 6
                }
            ]
        }
    ],
    "accessors" : [
        {
            "bufferView" : 0,
            "componentType" : 5126,
            "count" : 4402,
            "max" : [
                1.9894890785217285,
                1,
                1.9884806871414185
            ],
            "min" : [
                -1.9882047176361084,
                -1,
                -1.9885005950927734
            ],
            "type" : "VEC3"
        },
        {
            "bufferView" : 1,
            "componentType" : 5126,
            "count" : 4402,
            "type" : "VEC3"
        },
        {
            "bufferView" : 2,
            "componentType" : 5126,
            "count" : 4402,
            "type" : "VEC2"
        },
        {
            "bufferView" : 3,
            "componentType" : 5123,
            "count" : 5400,
            "type" : "SCALAR"
        },
        {
            "bufferView" : 4,
            "componentType" : 5126,
            "count" : 13716,
            "max" : [
                2.0010273456573486,
                1.1152760982513428,
                2.0010273456573486
            ],
            "min" : [
                -2.0010273456573486,
                -1.000999927520752,
                -2.0010273456573486
            ],
            "type" : "VEC3"
        },
        {
            "bufferView" : 5,
            "componentType" : 5126,
            "count" : 13716,
            "type" : "VEC3"
        },
        {
            "bufferView" : 6,
            "componentType" : 5126,
            "count" : 13716,
            "type" : "VEC2"
        },
        {
            "bufferView" : 7,
            "componentType" : 5123,
            "count" : 14592,
            "type" : "SCALAR"
        },
        {
            "bufferView" : 8,
            "componentType" : 5126,
            "count" : 5449,
            "max" : [
                0.997490406036377,
                1,
                0.997490406036377
            ],
            "min" : [
                -0.997490406036377,
                -1,
                -0.997490406036377
            ],
            "type" : "VEC3"
        },
        {
            "bufferView" : 9,
            "componentType" : 5126,
            "count" : 5449,
            "type" : "VEC3"
        },
        {
            "bufferView" : 10,
            "componentType" : 5126,
            "count" : 5449,
            "type" : "VEC2"
        },
        {
            "bufferView" : 11,
            "componentType" : 5123,
            "count" : 5712,
            "type" : "SCALAR"
        },
        {
            "bufferView" : 12,
            "componentType" : 5126,
            "count" : 461,
            "max" : [
                0.997490406036377,
                0.8932273983955383,
                0.7937561869621277
            ],
            "min" : [
                -0.9717507362365723,
                -1,
                -0.7539256811141968
            ],
            "type" : "VEC3"
        },
        {
            "bufferView" : 13,
            "componentType" : 5126,
            "count" : 461,
            "type" : "VEC3"
        },
        {
            "bufferView" : 14,
            "componentType" : 5126,
            "count" : 461,
            "type" : "VEC2"
        },
        {
            "bufferView" : 15,
            "componentType" : 5123,
            "count" : 513,
            "type" : "SCALAR"
        },
        {
            "bufferView" : 16,
            "componentType" : 5126,
            "count" : 272,
            "max" : [
                0.5329897403717041,
                0.8674909472465515,
                0.997490406036377
            ],
            "min" : [
                -0.8807609677314758,
                -1,
                -0.880761444568634
            ],
            "type" : "VEC3"
        },
        {
            "bufferView" : 17,
            "componentType" : 5126,
            "count" : 272,
            "type" : "VEC3"
        },
        {
            "bufferView" : 18,
            "componentType" : 5126,
            "count" : 272,
            "type" : "VEC2"
        },
        {
            "bufferView" : 19,
            "componentType" : 5123,
            "count" : 318,
            "type" : "SCALAR"
        },
        {
            "bufferView" : 20,
            "componentType" : 5126,
            "count" : 342,
            "max" : [
                -0.605462372303009,
                0.9211301207542419,
                0.025584718212485313
            ],
            "min" : [
                -0.997490406036377,
                -0.974396288394928,
                -0.6873157620429993
            ],
            "type" : "VEC3"
        },
        {
            "bufferView" : 21,
            "componentType" : 5126,
            "count" : 342,
            "type" : "VEC3"
        },
        {
            "bufferView" : 22,
            "componentType" : 5126,
            "count" : 342,
            "type" : "VEC2"
        },
        {
            "bufferView" : 23,
            "componentType" : 5123,
            "count" : 354,
            "type" : "SCALAR"
        },
        {
            "bufferView" : 24,
            "componentType" : 5126,
            "count" : 4819,
            "max" : [
                1.0617823600769043,
                0.17233529686927795,
                1.0617828369140625
            ],
            "min" : [
                -1.0617825984954834,
                -0.005506254266947508,
                -1.0617820024490356
            ],
            "type" : "VEC3"
        },
        {
            "bufferView" : 25,
            "componentType" : 5126,
            "count" : 4819,
            "type" : "VEC3"
        },
        {
            "bufferView" : 26,
            "componentType" : 5126,
            "count" : 4819,
            "type" : "VEC2"
        },
        {
            "bufferView" : 27,
            "componentType" : 5123,
            "count" : 5004,
            "type" : "SCALAR"
        }
    ],
    "bufferViews" : [
        {
            "buffer" : 0,
            "byteLength" : 52824,
            "byteOffset" : 0
        },
        {
            "buffer" : 0,
            "byteLength" : 52824,
            "byteOffset" : 52824
        },
        {
            "buffer" : 0,
            "byteLength" : 35216,
            "byteOffset" : 105648
        },
        {
            "buffer" : 0,
            "byteLength" : 10800,
            "byteOffset" : 140864
        },
        {
            "buffer" : 0,
            "byteLength" : 164592,
            "byteOffset" : 151664
        },
        {
            "buffer" : 0,
            "byteLength" : 164592,
            "byteOffset" : 316256
        },
        {
            "buffer" : 0,
            "byteLength" : 109728,
            "byteOffset" : 480848
        },
        {
            "buffer" : 0,
            "byteLength" : 29184,
            "byteOffset" : 590576
        },
        {
            "buffer" : 0,
            "byteLength" : 65388,
            "byteOffset" : 619760
        },
        {
            "buffer" : 0,
            "byteLength" : 65388,
            "byteOffset" : 685148
        },
        {
            "buffer" : 0,
            "byteLength" : 43592,
            "byteOffset" : 750536
        },
        {
            "buffer" : 0,
            "byteLength" : 11424,
            "byteOffset" : 794128
        },
        {
            "buffer" : 0,
            "byteLength" : 5532,
            "byteOffset" : 805552
        },
        {
            "buffer" : 0,
            "byteLength" : 5532,
            "byteOffset" : 811084
        },
        {
            "buffer" : 0,
            "byteLength" : 3688,
            "byteOffset" : 816616
        },
        {
            "buffer" : 0,
            "byteLength" : 1026,
            "byteOffset" : 820304
        },
        {
            "buffer" : 0,
            "byteLength" : 3264,
            "byteOffset" : 821332
        },
        {
            "buffer" : 0,
            "byteLength" : 3264,
            "byteOffset" : 824596
        },
        {
            "buffer" : 0,
            "byteLength" : 2176,
            "byteOffset" : 827860
        },
        {
            "buffer" : 0,
            "byteLength" : 636,
            "byteOffset" : 830036
        },
        {
            "buffer" : 0,
            "byteLength" : 4104,
            "byteOffset" : 830672
        },
        {
            "buffer" : 0,
            "byteLength" : 4104,
            "byteOffset" : 834776
        },
        {
            "buffer" : 0,
            "byteLength" : 2736,
            "byteOffset" : 838880
        },
        {
            "buffer" : 0,
            "byteLength" : 708,
            "byteOffset" : 841616
        },
        {
            "buffer" : 0,
            "byteLength" : 57828,
            "byteOffset" : 842324
        },
        {
            "buffer" : 0,
            "byteLength" : 57828,
            "byteOffset" : 900152
        },
        {
            "buffer" : 0,
            "byteLength" : 38552,
            "byteOffset" : 957980
        },
        {
            "buffer" : 0,
            "byteLength" : 10008,
            "byteOffset" : 996532
        }
    ],
    "buffers" : [
        {
            "byteLength" : 1006540,
            "uri" : "data:application/octet-stream;base64,"
        }
    ]
}
