{
    "asset" : {
        "generator" : "Khronos glTF Blender I/O v1.7.33",
        "version" : "2.0"
    },
    "scene" : 0,
    "scenes" : [
        {
            "name" : "Scene",
            "nodes" : [
                0,
                1,
                2,
                3,
                4,
                5,
                6,
                7,
                9,
                10,
                11,
                12,
                13,
                14,
                15,
                16
            ]
        }
    ],
    "nodes" : [
        {
            "mesh" : 0,
            "name" : "Natures_Grass Fence_Cube.003",
            "rotation" : [
                0,
                0.7071068286895752,
                0,
                0.7071068286895752
            ],
            "scale" : [
                1,
                1,
                2
            ],
            "translation" : [
                23,
                0,
                -9.5
            ]
        },
        {
            "mesh" : 1,
            "name" : "Natures_Big Tree_Mesh.001",
            "translation" : [
                -5,
                0,
                25
            ]
        },
        {
            "mesh" : 2,
            "name" : "Natures_Big Tree_Mesh.002",
            "translation" : [
                -5,
                0,
                -5
            ]
        },
        {
            "name" : "Natures_Big_Tree.obj"
        },
        {
            "name" : "Building_Shoes_Shop.obj"
        },
        {
            "name" : "Building_Fruits_Shop.obj"
        },
        {
            "name" : "Building_Clothing.obj"
        },
        {
            "name" : "Building_Books_Shop.obj"
        },
        {
            "mesh" : 3,
            "name" : "Natures_Grass Tile_Plane.010",
            "scale" : [
                2,
                1,
                2
            ],
            "translation" : [
                10,
                0,
                10
            ]
        },
        {
            "children" : [
                8
            ],
            "name" : "Natures_Grass_Tile.obj"
        },
        {
            "name" : "Camera001.Target",
            "rotation" : [
                0.4565672278404236,
                -0.32604098320007324,
                0.18446512520313263,
                0.8069797158241272
            ],
            "scale" : [
                0.7017550468444824,
                1.1704360246658325,
                0.7880762815475464
            ],
            "translation" : [
                7.077448844909668,
                -11.17449951171875,
                -31.421737670898438
            ]
        },
        {
            "mesh" : 4,
            "name" : "Box002",
            "scale" : [
                0.6499999761581421,
                0.6000000238418579,
                0.6499999761581421
            ],
            "translation" : [
                12,
                0,
                10
            ]
        },
        {
            "mesh" : 5,
            "name" : "Natures_Grass Fence_Cube.001",
            "rotation" : [
                0,
                0.7071068286895752,
                0,
                0.7071068286895752
            ],
            "scale" : [
                1,
                1,
                2
            ],
            "translation" : [
                -2.8237266540527344,
                0,
                -9.5
            ]
        },
        {
            "mesh" : 6,
            "name" : "Natures_Grass Fence_Cube.002",
            "rotation" : [
                0,
                0.7071068286895752,
                0,
                0.7071068286895752
            ],
            "scale" : [
                1,
                1,
                1.0898934602737427
            ],
            "translation" : [
                10.351720809936523,
                0,
                -9.5
            ]
        },
        {
            "mesh" : 7,
            "name" : "Natures_Grass Fence_Cube.004",
            "rotation" : [
                0,
                0.7071068286895752,
                0,
                0.7071068286895752
            ],
            "scale" : [
                1,
                1,
                2
            ],
            "translation" : [
                -2.8237266540527344,
                0,
                29.456926345825195
            ]
        },
        {
            "mesh" : 8,
            "name" : "Natures_Grass Fence_Cube.005",
            "rotation" : [
                0,
                0.7071068286895752,
                0,
                0.7071068286895752
            ],
            "scale" : [
                1,
                1,
                1.0898934602737427
            ],
            "translation" : [
                10.351720809936523,
                0,
                29.372283935546875
            ]
        },
        {
            "mesh" : 9,
            "name" : "Natures_Grass Fence_Cube.006",
            "rotation" : [
                0,
                0.7071068286895752,
                0,
                0.7071068286895752
            ],
            "scale" : [
                1,
                1,
                2
            ],
            "translation" : [
                23,
                0,
                29.338733673095703
            ]
        }
    ],
    "materials" : [
        {
            "name" : "Natures.007",
            "pbrMetallicRoughness" : {
                "baseColorTexture" : {
                    "index" : 0
                },
                "metallicFactor" : 0.5,
                "roughnessFactor" : 0.5
            }
        },
        {
            "name" : "Natures.033",
            "pbrMetallicRoughness" : {
                "baseColorTexture" : {
                    "index" : 1
                },
                "metallicFactor" : 0.5,
                "roughnessFactor" : 0.5
            }
        },
        {
            "name" : "DefaultMaterial.002",
            "pbrMetallicRoughness" : {
                "baseColorTexture" : {
                    "index" : 2
                },
                "metallicFactor" : 0.5,
                "roughnessFactor" : 0.5
            }
        },
        {
            "doubleSided" : true,
            "name" : "01 - Default",
            "pbrMetallicRoughness" : {
                "roughnessFactor" : 0.858578622341156
            }
        },
        {
            "name" : "Natures.034",
            "pbrMetallicRoughness" : {
                "baseColorTexture" : {
                    "index" : 3
                },
                "metallicFactor" : 0.5,
                "roughnessFactor" : 0.5
            }
        },
        {
            "name" : "Natures.035",
            "pbrMetallicRoughness" : {
                "baseColorTexture" : {
                    "index" : 4
                },
                "metallicFactor" : 0.5,
                "roughnessFactor" : 0.5
            }
        },
        {
            "name" : "Natures.036",
            "pbrMetallicRoughness" : {
                "baseColorTexture" : {
                    "index" : 5
                },
                "metallicFactor" : 0.5,
                "roughnessFactor" : 0.5
            }
        },
        {
            "name" : "Natures.037",
            "pbrMetallicRoughness" : {
                "baseColorTexture" : {
                    "index" : 6
                },
                "metallicFactor" : 0.5,
                "roughnessFactor" : 0.5
            }
        },
        {
            "name" : "Natures.038",
            "pbrMetallicRoughness" : {
                "baseColorTexture" : {
                    "index" : 7
                },
                "metallicFactor" : 0.5,
                "roughnessFactor" : 0.5
            }
        }
    ],
    "meshes" : [
        {
            "name" : "Mesh_4",
            "primitives" : [
                {
                    "attributes" : {
                        "POSITION" : 0,
                        "NORMAL" : 1,
                        "TEXCOORD_0" : 2
                    },
                    "indices" : 3,
                    "material" : 0
                }
            ]
        },
        {
            "name" : "Mesh_1.002",
            "primitives" : [
                {
                    "attributes" : {
                        "POSITION" : 4,
                        "NORMAL" : 5,
                        "TEXCOORD_0" : 6
                    },
                    "indices" : 7,
                    "material" : 1
                }
            ]
        },
        {
            "name" : "Mesh_2.002",
            "primitives" : [
                {
                    "attributes" : {
                        "POSITION" : 8,
                        "NORMAL" : 9,
                        "TEXCOORD_0" : 10
                    },
                    "indices" : 7,
                    "material" : 1
                }
            ]
        },
        {
            "name" : "Mesh_8.002",
            "primitives" : [
                {
                    "attributes" : {
                        "POSITION" : 11,
                        "NORMAL" : 12,
                        "TEXCOORD_0" : 13
                    },
                    "indices" : 14,
                    "material" : 2
                }
            ]
        },
        {
            "name" : "Mesh",
            "primitives" : [
                {
                    "attributes" : {
                        "POSITION" : 15,
                        "NORMAL" : 16,
                        "TEXCOORD_0" : 17
                    },
                    "indices" : 18,
                    "material" : 3
                }
            ]
        },
        {
            "name" : "Mesh_4.003",
            "primitives" : [
                {
                    "attributes" : {
                        "POSITION" : 19,
                        "NORMAL" : 20,
                        "TEXCOORD_0" : 21
                    },
                    "indices" : 3,
                    "material" : 4
                }
            ]
        },
        {
            "name" : "Mesh_4.004",
            "primitives" : [
                {
                    "attributes" : {
                        "POSITION" : 22,
                        "NORMAL" : 23,
                        "TEXCOORD_0" : 24
                    },
                    "indices" : 3,
                    "material" : 5
                }
            ]
        },
        {
            "name" : "Mesh_4.005",
            "primitives" : [
                {
                    "attributes" : {
                        "POSITION" : 25,
                        "NORMAL" : 26,
                        "TEXCOORD_0" : 27
                    },
                    "indices" : 3,
                    "material" : 6
                }
            ]
        },
        {
            "name" : "Mesh_4.006",
            "primitives" : [
                {
                    "attributes" : {
                        "POSITION" : 28,
                        "NORMAL" : 29,
                        "TEXCOORD_0" : 30
                    },
                    "indices" : 3,
                    "material" : 7
                }
            ]
        },
        {
            "name" : "Mesh_4.007",
            "primitives" : [
                {
                    "attributes" : {
                        "POSITION" : 31,
                        "NORMAL" : 32,
                        "TEXCOORD_0" : 33
                    },
                    "indices" : 3,
                    "material" : 8
                }
            ]
        }
    ],
    "textures" : [
        {
            "sampler" : 0,
            "source" : 0
        },
        {
            "sampler" : 0,
            "source" : 1
        },
        {
            "sampler" : 0,
            "source" : 2
        },
        {
            "sampler" : 0,
            "source" : 0
        },
        {
            "sampler" : 0,
            "source" : 0
        },
        {
            "sampler" : 0,
            "source" : 0
        },
        {
            "sampler" : 0,
            "source" : 0
        },
        {
            "sampler" : 0,
            "source" : 0
        }
    ],
    "images" : [
        {
            "bufferView" : 4,
            "mimeType" : "image/png",
            "name" : "Image_1"
        },
        {
            "bufferView" : 9,
            "mimeType" : "image/png",
            "name" : "Image_0"
        },
        {
            "bufferView" : 17,
            "mimeType" : "image/png",
            "name" : "Image_5"
        }
    ],
    "accessors" : [
        {
            "bufferView" : 0,
            "componentType" : 5126,
            "count" : 36,
            "max" : [
                0.5,
                1.2000000476837158,
                3.5
            ],
            "min" : [
                -0.5,
                -9.999999974752427e-07,
                -3.5
            ],
            "type" : "VEC3"
        },
        {
            "bufferView" : 1,
            "componentType" : 5126,
            "count" : 36,
            "type" : "VEC3"
        },
        {
            "bufferView" : 2,
            "componentType" : 5126,
            "count" : 36,
            "type" : "VEC2"
        },
        {
            "bufferView" : 3,
            "componentType" : 5123,
            "count" : 36,
            "type" : "SCALAR"
        },
        {
            "bufferView" : 5,
            "componentType" : 5126,
            "count" : 1332,
            "max" : [
                2.6072800159454346,
                6.117990016937256,
                2.5463099479675293
            ],
            "min" : [
                -2.3453900814056396,
                -0.00012199999764561653,
                -2.603019952774048
            ],
            "type" : "VEC3"
        },
        {
            "bufferView" : 6,
            "componentType" : 5126,
            "count" : 1332,
            "type" : "VEC3"
        },
        {
            "bufferView" : 7,
            "componentType" : 5126,
            "count" : 1332,
            "type" : "VEC2"
        },
        {
            "bufferView" : 8,
            "componentType" : 5123,
            "count" : 1332,
            "type" : "SCALAR"
        },
        {
            "bufferView" : 10,
            "componentType" : 5126,
            "count" : 1332,
            "max" : [
                2.6072800159454346,
                6.117990016937256,
                2.5463099479675293
            ],
            "min" : [
                -2.3453900814056396,
                -0.00012199999764561653,
                -2.603019952774048
            ],
            "type" : "VEC3"
        },
        {
            "bufferView" : 11,
            "componentType" : 5126,
            "count" : 1332,
            "type" : "VEC3"
        },
        {
            "bufferView" : 12,
            "componentType" : 5126,
            "count" : 1332,
            "type" : "VEC2"
        },
        {
            "bufferView" : 13,
            "componentType" : 5126,
            "count" : 6,
            "max" : [
                10,
                0,
                10
            ],
            "min" : [
                -10,
                0,
                -10
            ],
            "type" : "VEC3"
        },
        {
            "bufferView" : 14,
            "componentType" : 5126,
            "count" : 6,
            "type" : "VEC3"
        },
        {
            "bufferView" : 15,
            "componentType" : 5126,
            "count" : 6,
            "type" : "VEC2"
        },
        {
            "bufferView" : 16,
            "componentType" : 5123,
            "count" : 6,
            "type" : "SCALAR"
        },
        {
            "bufferView" : 18,
            "componentType" : 5126,
            "count" : 2537,
            "max" : [
                26.63935089111328,
                49.083030700683594,
                21.976791381835938
            ],
            "min" : [
                -32.65071105957031,
                -0.22354340553283691,
                -19.89325523376465
            ],
            "type" : "VEC3"
        },
        {
            "bufferView" : 19,
            "componentType" : 5126,
            "count" : 2537,
            "type" : "VEC3"
        },
        {
            "bufferView" : 20,
            "componentType" : 5126,
            "count" : 2537,
            "type" : "VEC2"
        },
        {
            "bufferView" : 21,
            "componentType" : 5123,
            "count" : 6342,
            "type" : "SCALAR"
        },
        {
            "bufferView" : 22,
            "componentType" : 5126,
            "count" : 36,
            "max" : [
                0.5,
                1.2000000476837158,
                3.5
            ],
            "min" : [
                -0.5,
                -9.999999974752427e-07,
                -3.5
            ],
            "type" : "VEC3"
        },
        {
            "bufferView" : 23,
            "componentType" : 5126,
            "count" : 36,
            "type" : "VEC3"
        },
        {
            "bufferView" : 24,
            "componentType" : 5126,
            "count" : 36,
            "type" : "VEC2"
        },
        {
            "bufferView" : 25,
            "componentType" : 5126,
            "count" : 36,
            "max" : [
                0.5,
                1.2000000476837158,
                3.5
            ],
            "min" : [
                -0.5,
                -9.999999974752427e-07,
                -3.5
            ],
            "type" : "VEC3"
        },
        {
            "bufferView" : 26,
            "componentType" : 5126,
            "count" : 36,
            "type" : "VEC3"
        },
        {
            "bufferView" : 27,
            "componentType" : 5126,
            "count" : 36,
            "type" : "VEC2"
        },
        {
            "bufferView" : 28,
            "componentType" : 5126,
            "count" : 36,
            "max" : [
                0.5,
                1.2000000476837158,
                3.5
            ],
            "min" : [
                -0.5,
                -9.999999974752427e-07,
                -3.5
            ],
            "type" : "VEC3"
        },
        {
            "bufferView" : 29,
            "componentType" : 5126,
            "count" : 36,
            "type" : "VEC3"
        },
        {
            "bufferView" : 30,
            "componentType" : 5126,
            "count" : 36,
            "type" : "VEC2"
        },
        {
            "bufferView" : 31,
            "componentType" : 5126,
            "count" : 36,
            "max" : [
                0.5,
                1.2000000476837158,
                3.5
            ],
            "min" : [
                -0.5,
                -9.999999974752427e-07,
                -3.5
            ],
            "type" : "VEC3"
        },
        {
            "bufferView" : 32,
            "componentType" : 5126,
            "count" : 36,
            "type" : "VEC3"
        },
        {
            "bufferView" : 33,
            "componentType" : 5126,
            "count" : 36,
            "type" : "VEC2"
        },
        {
            "bufferView" : 34,
            "componentType" : 5126,
            "count" : 36,
            "max" : [
                0.5,
                1.2000000476837158,
                3.5
            ],
            "min" : [
                -0.5,
                -9.999999974752427e-07,
                -3.5
            ],
            "type" : "VEC3"
        },
        {
            "bufferView" : 35,
            "componentType" : 5126,
            "count" : 36,
            "type" : "VEC3"
        },
        {
            "bufferView" : 36,
            "componentType" : 5126,
            "count" : 36,
            "type" : "VEC2"
        }
    ],
    "bufferViews" : [
        {
            "buffer" : 0,
            "byteLength" : 432,
            "byteOffset" : 0
        },
        {
            "buffer" : 0,
            "byteLength" : 432,
            "byteOffset" : 432
        },
        {
            "buffer" : 0,
            "byteLength" : 288,
            "byteOffset" : 864
        },
        {
            "buffer" : 0,
            "byteLength" : 72,
            "byteOffset" : 1152
        },
        {
            "buffer" : 0,
            "byteLength" : 10800,
            "byteOffset" : 1224
        },
        {
            "buffer" : 0,
            "byteLength" : 15984,
            "byteOffset" : 12024
        },
        {
            "buffer" : 0,
            "byteLength" : 15984,
            "byteOffset" : 28008
        },
        {
            "buffer" : 0,
            "byteLength" : 10656,
            "byteOffset" : 43992
        },
        {
            "buffer" : 0,
            "byteLength" : 2664,
            "byteOffset" : 54648
        },
        {
            "buffer" : 0,
            "byteLength" : 10800,
            "byteOffset" : 57312
        },
        {
            "buffer" : 0,
            "byteLength" : 15984,
            "byteOffset" : 68112
        },
        {
            "buffer" : 0,
            "byteLength" : 15984,
            "byteOffset" : 84096
        },
        {
            "buffer" : 0,
            "byteLength" : 10656,
            "byteOffset" : 100080
        },
        {
            "buffer" : 0,
            "byteLength" : 72,
            "byteOffset" : 110736
        },
        {
            "buffer" : 0,
            "byteLength" : 72,
            "byteOffset" : 110808
        },
        {
            "buffer" : 0,
            "byteLength" : 48,
            "byteOffset" : 110880
        },
        {
            "buffer" : 0,
            "byteLength" : 12,
            "byteOffset" : 110928
        },
        {
            "buffer" : 0,
            "byteLength" : 6768,
            "byteOffset" : 110940
        },
        {
            "buffer" : 0,
            "byteLength" : 30444,
            "byteOffset" : 117708
        },
        {
            "buffer" : 0,
            "byteLength" : 30444,
            "byteOffset" : 148152
        },
        {
            "buffer" : 0,
            "byteLength" : 20296,
            "byteOffset" : 178596
        },
        {
            "buffer" : 0,
            "byteLength" : 12684,
            "byteOffset" : 198892
        },
        {
            "buffer" : 0,
            "byteLength" : 432,
            "byteOffset" : 211576
        },
        {
            "buffer" : 0,
            "byteLength" : 432,
            "byteOffset" : 212008
        },
        {
            "buffer" : 0,
            "byteLength" : 288,
            "byteOffset" : 212440
        },
        {
            "buffer" : 0,
            "byteLength" : 432,
            "byteOffset" : 212728
        },
        {
            "buffer" : 0,
            "byteLength" : 432,
            "byteOffset" : 213160
        },
        {
            "buffer" : 0,
            "byteLength" : 288,
            "byteOffset" : 213592
        },
        {
            "buffer" : 0,
            "byteLength" : 432,
            "byteOffset" : 213880
        },
        {
            "buffer" : 0,
            "byteLength" : 432,
            "byteOffset" : 214312
        },
        {
            "buffer" : 0,
            "byteLength" : 288,
            "byteOffset" : 214744
        },
        {
            "buffer" : 0,
            "byteLength" : 432,
            "byteOffset" : 215032
        },
        {
            "buffer" : 0,
            "byteLength" : 432,
            "byteOffset" : 215464
        },
        {
            "buffer" : 0,
            "byteLength" : 288,
            "byteOffset" : 215896
        },
        {
            "buffer" : 0,
            "byteLength" : 432,
            "byteOffset" : 216184
        },
        {
            "buffer" : 0,
            "byteLength" : 432,
            "byteOffset" : 216616
        },
        {
            "buffer" : 0,
            "byteLength" : 288,
            "byteOffset" : 217048
        }
    ],
    "samplers" : [
        {
            "magFilter" : 9729,
            "minFilter" : 9987
        }
    ],
    "buffers" : [
        {
            "byteLength" : 217336,
            "uri" : "data:application/octet-stream;base64,"
        }
    ]
}
