{"accessors" : [{"bufferView" : 0, "byteOffset" : 0, "componentType" : 5123, "count" : 6342, "type" : "SCALAR", "max" : [5197], "min" : [0]}, {"bufferView" : 1, "byteOffset" : 0, "componentType" : 5126, "count" : 5198, "type" : "VEC3", "max" : [26.639400482177734, 49.08300018310547, 21.9768009185791], "min" : [-32.650699615478516, -0.22349999845027924, -19.893299102783203], "name" : "POSITION"}, {"bufferView" : 1, "byteOffset" : 12, "componentType" : 5126, "count" : 5198, "type" : "VEC2", "max" : [0.9972000122070312, -0.010700000450015068], "min" : [0.000699999975040555, -0.9941999912261963], "name" : "TEXCOORD_0"}, {"bufferView" : 1, "byteOffset" : 20, "componentType" : 5126, "count" : 5198, "type" : "VEC3", "max" : [1.0000044107437134, 1.0000044107437134, 1.0000044107437134], "min" : [-1.0000044107437134, -1.0000044107437134, -1.0000044107437134], "name" : "NORMAL"}], "asset" : {"generator" : "Aspose.3D 21.12", "version" : "2.0"}, "buffers" : [{"uri" : "data:application/octet-stream;base64,", "byteLength" : 215636}], "bufferViews" : [{"buffer" : 0, "byteOffset" : 0, "byteLength" : 12684, "target" : 34963}, {"buffer" : 0, "byteOffset" : 12688, "byteLength" : 202944, "byteStride" : 32, "target" : 34962}], "meshes" : [{"primitives" : [{"attributes" : {"POSITION" : 1, "TEXCOORD_0" : 2, "NORMAL" : 3}, "indices" : 0, "mode" : 4}], "name" : ""}], "nodes" : [{"mesh" : 0, "name" : "Factory"}], "scene" : 0, "scenes" : [{"nodes" : [0]}]}